<svg xmlns="http://www.w3.org/2000/svg" width="34.01" height="34.01" viewBox="0 0 34.01 34.01">
	<style type="text/css">
		.st1{fill:#ffffff;}
		.st0{fill:#70c9ec;}
	</style>
	<path class="st0" d="M17,34.01C26.4,34.01 34.01,26.4 34.01,17C34.01,7.61 26.4,0 17,0C7.61,0 0,7.61 0,17C0,26.4 7.61,34.01 17,34.01"/>
	<path class="st1" d="M25.54,12.55C24.91,12.83 24.23,13.01 23.53,13.1C24.25,12.67 24.8,11.98 25.06,11.16C24.39,11.57 23.64,11.86 22.85,12.01C22.21,11.33 21.3,10.91 20.29,10.91C18.37,10.91 16.8,12.47 16.8,14.4C16.8,14.68 16.83,14.94 16.89,15.2C13.99,15.05 11.41,13.66 9.69,11.55C9.38,12.07 9.21,12.67 9.21,13.31C9.21,14.52 9.83,15.59 10.77,16.21C10.19,16.2 9.66,16.04 9.18,15.78L9.18,15.82C9.18,17.52 10.39,18.93 11.99,19.25C11.69,19.33 11.39,19.37 11.07,19.37C10.84,19.37 10.62,19.35 10.41,19.31C10.85,20.7 12.14,21.71 13.67,21.74C12.48,22.67 10.97,23.23 9.33,23.23C9.05,23.23 8.77,23.22 8.5,23.18C10.05,24.17 11.88,24.75 13.86,24.75C20.29,24.75 23.8,19.43 23.8,14.81C23.8,14.66 23.8,14.51 23.79,14.36C24.47,13.86 25.07,13.25 25.54,12.55"/>
</svg>