<svg xmlns="http://www.w3.org/2000/svg" width="34.01" height="34.01" viewBox="0 0 34.01 34.01">
	<style type="text/css">
		.st1{fill:#ffffff;}
		.st0{fill:#ee5450;}
	</style>
	<path class="st0" d="M17,34.01C26.4,34.01 34.01,26.4 34.01,17C34.01,7.61 26.4,0 17,0C7.61,0 0,7.61 0,17C0,26.4 7.61,34.01 17,34.01"/>
	<path class="st1" d="M17,8.45C12.31,8.45 8.5,12.26 8.5,16.96C8.5,20.44 10.59,23.43 13.59,24.75C13.57,24.15 13.59,23.44 13.74,22.79C13.9,22.1 14.83,18.16 14.83,18.16C14.83,18.16 14.56,17.62 14.56,16.81C14.56,15.55 15.29,14.61 16.2,14.61C16.97,14.61 17.35,15.19 17.35,15.89C17.35,16.67 16.85,17.83 16.6,18.91C16.38,19.81 17.05,20.54 17.94,20.54C19.55,20.54 20.63,18.48 20.63,16.02C20.63,14.16 19.38,12.77 17.1,12.77C14.52,12.77 12.91,14.69 12.91,16.84C12.91,17.58 13.13,18.1 13.47,18.51C13.63,18.69 13.65,18.77 13.59,18.98C13.55,19.14 13.46,19.51 13.42,19.66C13.36,19.88 13.19,19.95 12.99,19.87C11.81,19.39 11.25,18.09 11.25,16.63C11.25,14.21 13.29,11.31 17.33,11.31C20.58,11.31 22.71,13.66 22.71,16.18C22.71,19.52 20.86,22.01 18.12,22.01C17.21,22.01 16.34,21.52 16.05,20.95C16.05,20.95 15.55,22.91 15.45,23.29C15.27,23.95 14.92,24.6 14.59,25.11C15.36,25.34 16.17,25.46 17,25.46C21.7,25.46 25.51,21.65 25.51,16.96C25.51,12.26 21.7,8.45 17,8.45"/>
</svg>