<svg xmlns="http://www.w3.org/2000/svg" width="34.01" height="34.01" viewBox="0 0 34.01 34.01">
	<style type="text/css">
		.st1{fill:#ffffff;}
		.st0{fill:#4a73b9;}
	</style>
	<path class="st0" d="M17,34.01C26.4,34.01 34.01,26.4 34.01,17C34.01,7.61 26.4,0 17,0C7.61,0 0,7.61 0,17C0,26.4 7.61,34.01 17,34.01"/>
	<path class="st1" d="M12.9,14.12L14.66,14.12L14.66,12.41C14.66,11.66 14.68,10.5 15.22,9.78C15.8,9.02 16.59,8.5 17.95,8.5C20.17,8.5 21.11,8.81 21.11,8.81L20.67,11.42C20.67,11.42 19.93,11.21 19.25,11.21C18.57,11.21 17.95,11.45 17.95,12.14L17.95,14.12L20.76,14.12L20.56,16.67L17.95,16.67L17.95,25.51L14.66,25.51L14.66,16.67L12.9,16.67Z"/>
</svg>